# xmcd
#
# Track frame offsets:
#	150
#	13823
#	25820
#	38375
#
# Disc length: 692 seconds
#
# Revision: 0
# Processed by: cddbd v1.5.1PL2 Copyright (c) Steve Scherf et al.
# Submitted via: audiograbber 1.83.01
#
DISCID=2102b204
DTITLE=Original Vogtlandecho - Komm mal raus (de Fotz von Zobes)
DYEAR=1900
DGENRE=
TTITLE0=Komm mal raus (de Fotz von Zobes)
TTITLE1=Mad'l aus Markneikerng
TTITLE2=Komm mal raus (Disse-Version)
TTITLE3=Komm mal raus (Zim Mietsinge)
EXTD=
EXTT0=
EXTT1=
EXTT2=
EXTT3=
PLAYORDER=
